<?xml version="1.0" encoding="UTF-8"?>
<svg version="1.1" viewBox="0 0 2000 2000" width="1280" height="1280" xmlns="http://www.w3.org/2000/svg">
<path transform="translate(1481,605)" d="m0 0 4 2 5 9 8 11 13 19 10 17 7 15 3 10 1 7v13l-2 12-5 13-8 12-9 11-11 7-16 8-14 4h-22l-13-4-16-8-12-10-9-11-7-9-9-15-13-18-6-11 1-5 18-12 13-9 15-9 18-13 12-7 22-15 13-8zm-1 20-15 9-17 11-19 13-16 10-14 10-20 12 1 4 10 18 16 22 12 13 14 9 11 4 7 1h11l14-3 13-7 14-12 8-9 4-10 2-9v-20l-3-14-7-14-10-14-12-19-3-5z"/>
<path transform="translate(1348,1259)" d="m0 0 5 1 8 7 11 11 11 9 15 15 8 7 13 12 9 9 8 7 24 22 1 4-7 8-5-2-10-8-2-1 1 3v11l-2 11-5 10-7 9-8 8-14 7-10 3-12 1-12-2-16-7-8-6-7-8-9-16-3-9-1-5v-10l3-13 5-10 8-11 7-7 12-6 9-2 15-1-22-22-8-7-12-11-1-5zm28 62-11 3-10 7-7 6-6 9-3 9v18l4 10 9 10 11 10 8 4 4 1h18l10-4 9-6 10-14 3-8 1-6v-8l-3-11-7-12-8-8-12-7-12-3z"/>
<path transform="translate(651,492)" d="m0 0h10l12 3 9 5 13 13 7 11 4 12v13l-4 12-7 11-8 10-10 9-11 8-8 8-9 6h-2l4 6 16 21 8 10-2 4-7 6-5-1-8-11-10-11-10-14-11-13-11-15-8-10-8-9-15-20-8-10v-4l12-8 10-9 13-10 18-13 14-7zm-3 16-12 4-11 6-13 11-11 9-10 6 2 4 11 13 8 10 9 12 13 15 2 4 3 1 12-10 16-12 10-9 7-8 4-8 1-5v-14l-5-14-6-7-14-7-4-1z"/>
<path transform="translate(514,1153)" d="m0 0h16l9 4 10 7 8 9 8 16 4 11 4 16 1 16-3 14-4 2-10-1 2-7v-24l-4-16-8-16-8-10-10-6h-12l-8 4-6 8-2 6v15l5 32 1 9v10l-2 9-5 9-9 9-7 4-9 2h-11l-10-3-9-6-8-8-10-16-6-15-3-12-1-15 1-9 4-1h10l1 5v15l3 16 5 14 6 8 7 6 9 4h12l8-4 4-5 2-5 1-11-2-19-3-24v-19l4-13 4-5 10-6z"/>
<path transform="translate(490,702)" d="m0 0 3 1 13 36 7 21v2l25-5 51-13h6l-8 16-6 2-18 4-39 10-7 1 7 19 5 15 26 12 2 2-1 5-5 9-6-2-38-19-20-8-42-21-23-10-13-7 1-5 3-6 5-1 13 5 32 16 24 10 25 12-9-25-16-48-2-9v-7l4-11z"/>
<path transform="translate(1514,1023)" d="m0 0h15l12 3 16 8 10 9 7 11 5 13v20l-4 14-7 11-6 7-10 7-12 5-13 2h-8l-7-1-1-1 2-26 5-38 5-30-19 4-11 6-6 8-6 13-2 10v11l3 12 4 8v5l-7 4-5-2-6-10-4-13v-19l4-15 6-11 8-10 11-8 11-5zm22 16-2 7-8 50-3 21 1 1h8l14-4 8-5 6-7 4-11 1-6v-17l-4-11-9-10-10-6z"/>
<path transform="translate(933,369)" d="m0 0h13l1 1 2 64 5-6 11-9 10-4 6-1h21l8 2 8 4 10 9 6 10 3 10 1 21v56h-13l-2-6-2-62-2-11-6-10-9-6-7-2h-17l-12 4-8 6-6 9-3 8-1 6v16l1 49-2 1h-12l-1-1-4-156z"/>
<path transform="translate(1496,787)" d="m0 0h21l13 4 8 6 8 7 8 11 5 11 2 9v15l-3 12-7 11-9 10-10 6-16 6-3-7-16-49-10-30-5 1-10 6-5 6-4 10-1 5v16l3 12 7 11 9 8 5 3-1 6-3 6-5-2-10-6-7-8-8-15-5-16v-16l3-12 6-11 9-11 9-7 13-6zm3 15-1 3 12 35 10 37 4 1 10-6 8-10 4-9 1-4v-13l-4-13-5-8-5-5-8-5-9-3z"/>
<path transform="translate(1278,1389)" d="m0 0h10l14 3 9 5 10 9 9 9 5 8 4 13v26l-4 12-7 9-10 9-10 6-11 4-5 1h-15l-10-3-11-6-13-11-6-9 1-5 19-11 27-18 26-16 4-3-2-4-10-7-11-4-5-1h-9l-13 4-11 6-8 7-6 12-3 8-5-1-7-3 1-7 7-14 12-13 14-9 13-5zm41 43-21 12-16 11-10 6-11 7-6 4 2 5 9 8 9 3 5 1h12l12-3 8-5 8-9 5-10 1-4v-15l-3-11z"/>
<path transform="translate(490,965)" d="m0 0h33l1 3v11l-1 1h-14l7 8 5 9 4 11 1 16-3 14-6 11-8 8-8 3h-15l-10-4-5-4-6-10-3-8-1-8-1-43h-8l-14 3-6 4-5 10-1 4v19l3 11 9 16-2 4-7 4-4-2-5-8-5-11-2-8-1-10v-16l2-12 4-8 4-5 10-7 11-4 7-1zm-18 17v40l3 12 5 7 10 4 9-1 9-5 4-6 2-12-1-15-4-11-6-7-9-5-3-1z"/>
<path transform="translate(914,1468)" d="m0 0 11 1 6 2-2 9-12 48-7 34-13 51-1 2-11-1-23-5-62-16-4-2 3-10 5-1 28 6 38 9 14 4 1-9 11-47 1-2-15-2-24-5-34-9-2-1 3-11 4-1 29 6 39 10h3l12-48z"/>
<path transform="translate(1457,1193)" d="m0 0h13l11 2 15 8 10 8 8 9 6 14 2 9v14l-3 12-5 12-6 8-7 7-11 7-8 4-10 2h-13l-13-3-11-6-11-9-7-7-5-10-4-14v-17l5-17 6-10 4-5 11-9 13-7zm-1 16-12 3-9 6-6 8-7 14-1 4v15l4 9 8 11 7 6 13 6 8 2h14l11-4 9-6 7-8 6-13 1-5v-12l-4-11-6-9-9-8-10-5-12-3z"/>
<path transform="translate(1112,428)" d="m0 0h12l14 3 11 5 10 6 8 10 8 16 2 11-1 15-4 13-4 8-8 11-7 7-8 4-10 3-7 1h-15l-16-3-10-5-10-9-8-10-5-10-2-8v-20l3-11 6-12 8-10 11-8 12-5zm4 12-12 3-10 6-8 9-5 10-3 11v17l4 11 6 9 9 7 10 4 4 1h18l10-4 11-9 7-9 4-14v-20l-3-9-7-9-8-7-11-5-10-2z"/>
<path transform="translate(808,443)" d="m0 0h3v151l-4 12-4 6-10 7-8 4-7 2h-16l-2-2v-8l1-3h16l8-3 5-5 3-5 2-6 1-8v-13l-7-8-11-9-16-15-11-9-17-16-11-9-16-16 3-3 7-3 5 1 9 7 17 17 10 8 7 7 8 7 13 11 9 9 2 1v-104z"/>
<path transform="translate(731,1395)" d="m0 0 5 2 7 4-1 4-6 12 10-3h21l12 4 13 10 9 10 5 10 1 4v11l-2 9-16 32-14 27-6 9-6-1-6-3v-4l9-20 10-17 9-17 4-15v-11l-3-9-5-6-10-6-11-4h-13l-9 3-8 6-7 7-8 16-12 23-7 11-5 7-5-2-6-4 1-5 11-23 8-13 13-24 8-16z"/>
<path transform="translate(1226,460)" d="m0 0 6 1 7 3-1 6-6 13 10-4 10-1 14 2 13 5 9 6 8 9 6 12 1 3v17l-5 13-11 21-8 16-11 19-3 5-12-7 2-5 13-27 9-15 7-14 2-9v-13l-4-9-6-7-12-7-12-3-11 1-10 4-7 6-7 10-11 22-11 19-6 10-5 1-9-4 2-6 8-16 11-21 12-21 15-31z"/>
<path transform="translate(453,835)" d="m0 0h5l3 7-1 5-9 6-7 8-4 8-1 5v21l4 10 3 4v2l4 2 11 7 10 4 6 1h13l13-4 8-6h2l9-18 2-11v-8l-3-11-4-6-2-4 9-9 4 2 8 13 2 7v24l-3 12-4 8-8 10-8 8-12 6-11 2h-21l-16-4-10-6-7-7-8-13-4-9-2-11v-10l3-14 8-16 7-10z"/>
<path transform="translate(1577,897)" d="m0 0 2 4v12l-15 8-21 12-16 8-16 9-18 10-5 1v2l7 1 22 8 29 11 17 5 22 8 1 2v14l-5-1-50-19-37-12-21-8-2-2-2-13 9-6 19-11 16-8 27-15 16-8 16-9z"/>
<path transform="translate(520,1065)" d="m0 0 4 2 7 11 4 11v16l-6 10-9 7-14 5-40 9-21 4h-3l4 16v4l-7 2-5-1-3-15v-3l-19 4h-6l-2-8v-5l6-2 16-4-4-18-2-10v-6l12-2 2 3 5 29 9-1 36-8 23-4 8-4 4-7 1-8-3-10-4-7 1-5z"/>
<path transform="translate(847,409)" d="m0 0 5 1 5 21 11-2 16-4h6l1 5v7l-30 7 2 14 8 33 6 22 5 8 6 3h11l9-4 5-4 4 2 3 5-1 5-8 7-10 3-7 1h-8l-12-3-6-5-5-9-18-71v-3l-15 4h-5l-2-8 1-5 17-3-4-19v-5z"/>
<path transform="translate(1450,1141)" d="m0 0 6 1 49 17 25 7 34 12 21 7 14 4 1 4-3 10-4 2-15-6-30-10-27-8-46-16-28-8-1-4z"/>
<path transform="translate(695,1366)" d="m0 0 4 1 9 7-1 4-7 8-8 9-10 14-11 13-12 16-11 13-11 14-10 13-10 11-6 9-4-2-8-6 1-4 9-10 9-13 9-10 10-13 8-10 13-16 10-13 13-16 13-18z"/>
<path transform="translate(658,1334)" d="m0 0 5 1 6 5-1 5-14 15-67 67-7 8-15 14-4 5-4-2-7-7 1-4 11-10 7-8 12-12h2l2-4 34-34 1-2h2l2-4 31-31z"/>
<path transform="translate(1188,1435)" d="m0 0 4 1 5 12 10 23 9 25 16 40-1 3-8 2h-6l-5-15-3 9-6 8-5 5-8 7-7 4-4-2-3-7v-5l14-8 7-8 4-11v-14l-4-13-11-28-7-20-1-4z"/>
<path transform="translate(1067,1467)" d="m0 0 9 1 5 5 2 4-1 7-4 4-5 2-8-1-5-6v-8l3-5z"/>
</svg>
